<svg width="217" height="26" viewBox="0 0 217 26" fill="none" xmlns="http://www.w3.org/2000/svg">
<path d="M15.065 6.041H6.938V20H0.674V1.1H15.065V6.041ZM26.7919 4.961C28.0879 4.961 29.2759 5.276 30.3559 5.906C31.4539 6.518 32.3179 7.409 32.9479 8.579C33.5959 9.749 33.9199 11.099 33.9199 12.629C33.9199 14.159 33.5959 15.509 32.9479 16.679C32.3179 17.831 31.4539 18.722 30.3559 19.352C29.2759 19.964 28.0879 20.27 26.7919 20.27C25.1539 20.27 23.9029 19.847 23.0389 19.001V25.238H16.9369V5.231H22.7419V6.446C23.6239 5.456 24.9739 4.961 26.7919 4.961ZM25.3339 15.518C26.0359 15.518 26.6119 15.266 27.0619 14.762C27.5119 14.258 27.7369 13.547 27.7369 12.629C27.7369 11.711 27.5119 11 27.0619 10.496C26.6119 9.974 26.0359 9.713 25.3339 9.713C24.6319 9.713 24.0559 9.974 23.6059 10.496C23.1559 11 22.9309 11.711 22.9309 12.629C22.9309 13.547 23.1559 14.258 23.6059 14.762C24.0559 15.266 24.6319 15.518 25.3339 15.518ZM52.1854 5.231L46.1104 20.297C45.3364 22.223 44.3734 23.573 43.2214 24.347C42.0694 25.121 40.6564 25.508 38.9824 25.508C38.1544 25.508 37.3174 25.382 36.4714 25.13C35.6434 24.896 34.9864 24.581 34.5004 24.185L36.5254 20C36.8314 20.234 37.1734 20.423 37.5514 20.567C37.9474 20.711 38.3254 20.783 38.6854 20.783C39.3514 20.783 39.8554 20.585 40.1974 20.189L33.9874 5.231H40.2514L43.3024 13.142L46.4074 5.231H52.1854ZM64.5568 12.332C65.3488 12.62 65.9608 13.043 66.3928 13.601C66.8428 14.141 67.0678 14.78 67.0678 15.518C67.0678 16.544 66.7078 17.426 65.9878 18.164C65.2678 18.884 64.2958 19.433 63.0718 19.811C61.8478 20.171 60.4888 20.351 58.9948 20.351C56.4568 20.351 54.1528 19.973 52.0828 19.217L53.6218 15.194C55.1518 15.752 56.8888 16.031 58.8328 16.031C59.4808 16.031 59.9938 15.95 60.3718 15.788C60.7498 15.626 60.9388 15.374 60.9388 15.032C60.9388 14.744 60.8488 14.546 60.6688 14.438C60.5068 14.312 60.2188 14.249 59.8048 14.249H56.4298V10.847H59.2378C59.6878 10.847 60.0118 10.784 60.2098 10.658C60.4258 10.532 60.5338 10.325 60.5338 10.037C60.5338 9.749 60.3898 9.533 60.1018 9.389C59.8138 9.245 59.3188 9.173 58.6168 9.173C57.2668 9.173 55.6918 9.479 53.8918 10.091L52.5148 6.23C54.8008 5.348 56.9878 4.907 59.0758 4.907C61.2898 4.907 63.1078 5.276 64.5298 6.014C65.9518 6.734 66.6628 7.787 66.6628 9.173C66.6628 9.821 66.4738 10.424 66.0958 10.982C65.7178 11.54 65.2048 11.99 64.5568 12.332ZM76.6261 20.27C74.9881 20.27 73.5121 19.946 72.1981 19.298C70.9021 18.632 69.8851 17.723 69.1471 16.571C68.4091 15.401 68.0401 14.078 68.0401 12.602C68.0401 11.126 68.4091 9.812 69.1471 8.66C69.8851 7.49 70.9021 6.581 72.1981 5.933C73.5121 5.285 74.9881 4.961 76.6261 4.961C78.2821 4.961 79.7581 5.285 81.0541 5.933C82.3681 6.581 83.3851 7.49 84.1051 8.66C84.8431 9.812 85.2121 11.126 85.2121 12.602C85.2121 14.078 84.8431 15.401 84.1051 16.571C83.3851 17.723 82.3681 18.632 81.0541 19.298C79.7581 19.946 78.2821 20.27 76.6261 20.27ZM76.6261 15.518C77.3281 15.518 77.9041 15.266 78.3541 14.762C78.8041 14.24 79.0291 13.52 79.0291 12.602C79.0291 11.684 78.8041 10.973 78.3541 10.469C77.9041 9.965 77.3281 9.713 76.6261 9.713C75.9241 9.713 75.3481 9.965 74.8981 10.469C74.4481 10.973 74.2231 11.684 74.2231 12.602C74.2231 13.52 74.4481 14.24 74.8981 14.762C75.3481 15.266 75.9241 15.518 76.6261 15.518ZM99.6549 12.251C101.275 12.863 102.085 14.006 102.085 15.68C102.085 17.03 101.554 18.092 100.492 18.866C99.4299 19.622 97.8729 20 95.8209 20H87.0999V5.231H95.3889C97.3689 5.231 98.9079 5.573 100.006 6.257C101.104 6.923 101.653 7.868 101.653 9.092C101.653 9.776 101.482 10.388 101.14 10.928C100.798 11.468 100.303 11.909 99.6549 12.251ZM92.4459 11.063H94.8489C95.7309 11.063 96.1719 10.712 96.1719 10.01C96.1719 9.668 96.0639 9.416 95.8479 9.254C95.6499 9.092 95.3169 9.011 94.8489 9.011H92.4459V11.063ZM95.2809 16.22C96.1629 16.22 96.6039 15.851 96.6039 15.113C96.6039 14.411 96.1629 14.06 95.2809 14.06H92.4459V16.22H95.2809ZM104.08 5.231H110.155V11.9L115.258 5.231H120.874V20H114.799V13.304L109.723 20H104.08V5.231ZM138.736 5.231V20H132.661V15.005C131.797 15.509 130.663 15.761 129.259 15.761C127.117 15.761 125.524 15.284 124.48 14.33C123.436 13.358 122.914 11.828 122.914 9.74V5.231H128.989V9.335C128.989 10.073 129.124 10.586 129.394 10.874C129.682 11.162 130.123 11.306 130.717 11.306C131.437 11.306 132.085 11.171 132.661 10.901V5.231H138.736ZM148.864 15.086H147.703V20H141.601V5.231H147.703V10.415H149.026L152.266 5.231H158.692L153.94 12.305L158.989 20H151.807L148.864 15.086Z" fill="white"/>
<path d="M170.365 20.432C168.331 20.432 166.504 20.009 164.884 19.163C163.264 18.317 161.995 17.147 161.077 15.653C160.159 14.141 159.7 12.44 159.7 10.55C159.7 8.66 160.159 6.968 161.077 5.474C161.995 3.962 163.264 2.783 164.884 1.937C166.504 1.091 168.331 0.667999 170.365 0.667999C172.399 0.667999 174.226 1.091 175.846 1.937C177.466 2.783 178.735 3.962 179.653 5.474C180.571 6.968 181.03 8.66 181.03 10.55C181.03 12.44 180.571 14.141 179.653 15.653C178.735 17.147 177.466 18.317 175.846 19.163C174.226 20.009 172.399 20.432 170.365 20.432ZM170.365 15.275C171.157 15.275 171.868 15.086 172.498 14.708C173.146 14.312 173.659 13.763 174.037 13.061C174.415 12.341 174.604 11.504 174.604 10.55C174.604 9.596 174.415 8.768 174.037 8.066C173.659 7.346 173.146 6.797 172.498 6.419C171.868 6.023 171.157 5.825 170.365 5.825C169.573 5.825 168.853 6.023 168.205 6.419C167.575 6.797 167.071 7.346 166.693 8.066C166.315 8.768 166.126 9.596 166.126 10.55C166.126 11.504 166.315 12.341 166.693 13.061C167.071 13.763 167.575 14.312 168.205 14.708C168.853 15.086 169.573 15.275 170.365 15.275ZM189.715 5.906V9.146H197.599V13.952H189.715V20H183.343V1.1H198.706V5.906H189.715ZM207.091 5.906V9.146H214.975V13.952H207.091V20H200.719V1.1H216.082V5.906H207.091Z" fill="#FF7A00"/>
</svg>
