<svg width="144" height="17" viewBox="0 0 144 17" fill="none" xmlns="http://www.w3.org/2000/svg">
<path d="M9.71 3.694H4.292V13H0.116V0.399999H9.71V3.694ZM17.5279 2.974C18.3919 2.974 19.1839 3.184 19.9039 3.604C20.6359 4.012 21.2119 4.606 21.6319 5.386C22.0639 6.166 22.2799 7.066 22.2799 8.086C22.2799 9.106 22.0639 10.006 21.6319 10.786C21.2119 11.554 20.6359 12.148 19.9039 12.568C19.1839 12.976 18.3919 13.18 17.5279 13.18C16.4359 13.18 15.6019 12.898 15.0259 12.334V16.492H10.9579V3.154H14.8279V3.964C15.4159 3.304 16.3159 2.974 17.5279 2.974ZM16.5559 10.012C17.0239 10.012 17.4079 9.844 17.7079 9.508C18.0079 9.172 18.1579 8.698 18.1579 8.086C18.1579 7.474 18.0079 7 17.7079 6.664C17.4079 6.316 17.0239 6.142 16.5559 6.142C16.0879 6.142 15.7039 6.316 15.4039 6.664C15.1039 7 14.9539 7.474 14.9539 8.086C14.9539 8.698 15.1039 9.172 15.4039 9.508C15.7039 9.844 16.0879 10.012 16.5559 10.012ZM34.4569 3.154L30.4069 13.198C29.8909 14.482 29.2489 15.382 28.4809 15.898C27.7129 16.414 26.7709 16.672 25.6549 16.672C25.1029 16.672 24.5449 16.588 23.9809 16.42C23.4289 16.264 22.9909 16.054 22.6669 15.79L24.0169 13C24.2209 13.156 24.4489 13.282 24.7009 13.378C24.9649 13.474 25.2169 13.522 25.4569 13.522C25.9009 13.522 26.2369 13.39 26.4649 13.126L22.3249 3.154H26.5009L28.5349 8.428L30.6049 3.154H34.4569ZM42.7046 7.888C43.2326 8.08 43.6406 8.362 43.9286 8.734C44.2286 9.094 44.3786 9.52 44.3786 10.012C44.3786 10.696 44.1386 11.284 43.6586 11.776C43.1786 12.256 42.5306 12.622 41.7146 12.874C40.8986 13.114 39.9926 13.234 38.9966 13.234C37.3046 13.234 35.7686 12.982 34.3886 12.478L35.4146 9.796C36.4346 10.168 37.5926 10.354 38.8886 10.354C39.3206 10.354 39.6626 10.3 39.9146 10.192C40.1666 10.084 40.2926 9.916 40.2926 9.688C40.2926 9.496 40.2326 9.364 40.1126 9.292C40.0046 9.208 39.8126 9.166 39.5366 9.166H37.2866V6.898H39.1586C39.4586 6.898 39.6746 6.856 39.8066 6.772C39.9506 6.688 40.0226 6.55 40.0226 6.358C40.0226 6.166 39.9266 6.022 39.7346 5.926C39.5426 5.83 39.2126 5.782 38.7446 5.782C37.8446 5.782 36.7946 5.986 35.5946 6.394L34.6766 3.82C36.2006 3.232 37.6586 2.938 39.0506 2.938C40.5266 2.938 41.7386 3.184 42.6866 3.676C43.6346 4.156 44.1086 4.858 44.1086 5.782C44.1086 6.214 43.9826 6.616 43.7306 6.988C43.4786 7.36 43.1366 7.66 42.7046 7.888ZM50.7507 13.18C49.6587 13.18 48.6747 12.964 47.7987 12.532C46.9347 12.088 46.2567 11.482 45.7647 10.714C45.2727 9.934 45.0267 9.052 45.0267 8.068C45.0267 7.084 45.2727 6.208 45.7647 5.44C46.2567 4.66 46.9347 4.054 47.7987 3.622C48.6747 3.19 49.6587 2.974 50.7507 2.974C51.8547 2.974 52.8387 3.19 53.7027 3.622C54.5787 4.054 55.2567 4.66 55.7367 5.44C56.2287 6.208 56.4747 7.084 56.4747 8.068C56.4747 9.052 56.2287 9.934 55.7367 10.714C55.2567 11.482 54.5787 12.088 53.7027 12.532C52.8387 12.964 51.8547 13.18 50.7507 13.18ZM50.7507 10.012C51.2187 10.012 51.6027 9.844 51.9027 9.508C52.2027 9.16 52.3527 8.68 52.3527 8.068C52.3527 7.456 52.2027 6.982 51.9027 6.646C51.6027 6.31 51.2187 6.142 50.7507 6.142C50.2827 6.142 49.8987 6.31 49.5987 6.646C49.2987 6.982 49.1487 7.456 49.1487 8.068C49.1487 8.68 49.2987 9.16 49.5987 9.508C49.8987 9.844 50.2827 10.012 50.7507 10.012ZM66.1033 7.834C67.1833 8.242 67.7233 9.004 67.7233 10.12C67.7233 11.02 67.3693 11.728 66.6613 12.244C65.9533 12.748 64.9153 13 63.5473 13H57.7333V3.154H63.2593C64.5793 3.154 65.6053 3.382 66.3373 3.838C67.0693 4.282 67.4353 4.912 67.4353 5.728C67.4353 6.184 67.3213 6.592 67.0933 6.952C66.8653 7.312 66.5353 7.606 66.1033 7.834ZM61.2973 7.042H62.8993C63.4873 7.042 63.7813 6.808 63.7813 6.34C63.7813 6.112 63.7093 5.944 63.5653 5.836C63.4333 5.728 63.2113 5.674 62.8993 5.674H61.2973V7.042ZM63.1873 10.48C63.7753 10.48 64.0693 10.234 64.0693 9.742C64.0693 9.274 63.7753 9.04 63.1873 9.04H61.2973V10.48H63.1873ZM69.0536 3.154H73.1036V7.6L76.5056 3.154H80.2496V13H76.1996V8.536L72.8156 13H69.0536V3.154ZM92.1573 3.154V13H88.1073V9.67C87.5313 10.006 86.7753 10.174 85.8393 10.174C84.4113 10.174 83.3493 9.856 82.6533 9.22C81.9573 8.572 81.6093 7.552 81.6093 6.16V3.154H85.6593V5.89C85.6593 6.382 85.7493 6.724 85.9293 6.916C86.1213 7.108 86.4153 7.204 86.8113 7.204C87.2913 7.204 87.7233 7.114 88.1073 6.934V3.154H92.1573ZM98.9093 9.724H98.1353V13H94.0673V3.154H98.1353V6.61H99.0173L101.177 3.154H105.461L102.293 7.87L105.659 13H100.871L98.9093 9.724Z" fill="#242D39"/>
<path d="M113.243 13.288C111.887 13.288 110.669 13.006 109.589 12.442C108.509 11.878 107.663 11.098 107.051 10.102C106.439 9.094 106.133 7.96 106.133 6.7C106.133 5.44 106.439 4.312 107.051 3.316C107.663 2.308 108.509 1.522 109.589 0.957999C110.669 0.394 111.887 0.112 113.243 0.112C114.599 0.112 115.817 0.394 116.897 0.957999C117.977 1.522 118.823 2.308 119.435 3.316C120.047 4.312 120.353 5.44 120.353 6.7C120.353 7.96 120.047 9.094 119.435 10.102C118.823 11.098 117.977 11.878 116.897 12.442C115.817 13.006 114.599 13.288 113.243 13.288ZM113.243 9.85C113.771 9.85 114.245 9.724 114.665 9.472C115.097 9.208 115.439 8.842 115.691 8.374C115.943 7.894 116.069 7.336 116.069 6.7C116.069 6.064 115.943 5.512 115.691 5.044C115.439 4.564 115.097 4.198 114.665 3.946C114.245 3.682 113.771 3.55 113.243 3.55C112.715 3.55 112.235 3.682 111.803 3.946C111.383 4.198 111.047 4.564 110.795 5.044C110.543 5.512 110.417 6.064 110.417 6.7C110.417 7.336 110.543 7.894 110.795 8.374C111.047 8.842 111.383 9.208 111.803 9.472C112.235 9.724 112.715 9.85 113.243 9.85ZM126.143 3.604V5.764H131.399V8.968H126.143V13H121.895V0.399999H132.137V3.604H126.143ZM137.727 3.604V5.764H142.983V8.968H137.727V13H133.479V0.399999H143.721V3.604H137.727Z" fill="#FF7A00"/>
</svg>
